<svg width="30" height="7" viewBox="0 0 30 7" fill="none" xmlns="http://www.w3.org/2000/svg">
<path d="M8.04077 3.13022V0.649902H9.11794C9.27384 0.649902 9.40967 0.677068 9.52542 0.731398C9.64117 0.785729 9.73093 0.862501 9.79471 0.961713C9.85849 1.06093 9.89038 1.17786 9.89038 1.3125V1.35502C9.89038 1.50384 9.85494 1.62431 9.78408 1.71644C9.71321 1.80856 9.62581 1.87589 9.52187 1.91841V1.98219C9.61636 1.98691 9.68959 2.01998 9.74156 2.0814C9.79353 2.14045 9.81951 2.21959 9.81951 2.3188V3.13022H9.35179V2.38612C9.35179 2.32943 9.33644 2.28337 9.30573 2.24793C9.27739 2.2125 9.22896 2.19478 9.16046 2.19478H8.50849V3.13022H8.04077ZM8.50849 1.76959H9.06833C9.17935 1.76959 9.26557 1.74006 9.32699 1.681C9.39077 1.61959 9.42266 1.53927 9.42266 1.44006V1.40463C9.42266 1.30541 9.39195 1.22628 9.33054 1.16723C9.26912 1.10581 9.18172 1.0751 9.06833 1.0751H8.50849V1.76959Z" fill="#FEFEFE"/>
<path d="M5.27075 3.13022L5.92272 0.649902H6.73768L7.38965 3.13022H6.90776L6.77311 2.58455H5.88729L5.75264 3.13022H5.27075ZM5.99713 2.15226H6.66327L6.36209 0.943997H6.29831L5.99713 2.15226Z" fill="#FEFEFE"/>
<path d="M2.67065 3.13022L3.32262 0.649902H4.13758L4.78955 3.13022H4.30766L4.17302 2.58455H3.28719L3.15254 3.13022H2.67065ZM3.39703 2.15226H4.06317L3.76199 0.943997H3.69821L3.39703 2.15226Z" fill="#FEFEFE"/>
<path d="M1.17646 3.17963C0.869372 3.17963 0.626065 3.09459 0.446537 2.92451C0.26701 2.75207 0.177246 2.5064 0.177246 2.1875V1.59222C0.177246 1.27333 0.26701 1.02884 0.446537 0.858759C0.626065 0.686318 0.869372 0.600098 1.17646 0.600098C1.48118 0.600098 1.71622 0.683956 1.88158 0.851673C2.04929 1.01703 2.13315 1.24498 2.13315 1.53553V1.55679H1.67252V1.52136C1.67252 1.3749 1.63118 1.25443 1.54851 1.15994C1.46819 1.06545 1.34418 1.01821 1.17646 1.01821C1.0111 1.01821 0.881183 1.069 0.786695 1.17057C0.692207 1.27214 0.644963 1.41033 0.644963 1.58514V2.19459C0.644963 2.36703 0.692207 2.50522 0.786695 2.60915C0.881183 2.71073 1.0111 2.76151 1.17646 2.76151C1.34418 2.76151 1.46819 2.71427 1.54851 2.61978C1.63118 2.52293 1.67252 2.40246 1.67252 2.25837V2.19459H2.13315V2.24419C2.13315 2.53474 2.04929 2.76388 1.88158 2.93159C1.71622 3.09695 1.48118 3.17963 1.17646 3.17963Z" fill="#FEFEFE"/>
<path d="M17.7639 0.809797H17.2931C17.2671 0.810107 17.2421 0.819786 17.2231 0.836932C17.0728 0.605475 16.9172 0.420187 16.7964 0.30375C16.3764 -0.10125 13.8564 -0.10125 13.4364 0.30375C13.3161 0.419985 13.1613 0.604057 13.0118 0.833895C12.9938 0.818932 12.9709 0.810546 12.9471 0.810202H12.4761C12.4183 0.810202 12.3711 0.855967 12.3711 0.911452V1.11598C12.3711 1.17146 12.4173 1.22533 12.474 1.23606L12.7596 1.28871C12.5131 1.81885 12.3677 2.4786 12.5962 3.13956V3.5318C12.5962 3.64378 12.6256 3.7343 12.6619 3.7343H13.2C13.2363 3.7343 13.2657 3.64378 13.2657 3.5318V3.21104C13.7483 3.25559 14.4312 3.30419 15.1162 3.30419C15.7949 3.30419 16.4854 3.2564 16.9672 3.21226V3.5318C16.9672 3.64378 16.9966 3.7343 17.0327 3.7343H17.5707C17.6068 3.7343 17.6362 3.64378 17.6362 3.5318L17.6358 3.13936C17.8641 2.47921 17.7192 1.81987 17.473 1.28972L17.7654 1.23606C17.7939 1.2298 17.8195 1.21461 17.8381 1.19284C17.8567 1.17108 17.8673 1.14397 17.8683 1.11577V0.91125C17.8683 0.89799 17.8657 0.884849 17.8604 0.872581C17.8552 0.860312 17.8476 0.849156 17.8379 0.839751C17.8282 0.830347 17.8166 0.822878 17.8039 0.817773C17.7913 0.812668 17.7776 0.810026 17.7639 0.81V0.809797ZM13.2525 2.45551C13.1537 2.45235 13.0601 2.41231 12.9915 2.34384C12.9228 2.27537 12.8844 2.18384 12.8844 2.08858C12.8844 1.99333 12.9228 1.9018 12.9915 1.83333C13.0601 1.76486 13.1537 1.72482 13.2525 1.72165C13.3512 1.72484 13.4448 1.76491 13.5134 1.8334C13.5821 1.90188 13.6205 1.99342 13.6204 2.08868C13.6204 2.18394 13.582 2.27546 13.5133 2.34391C13.4446 2.41236 13.3512 2.45238 13.2525 2.45551ZM12.9324 1.40454C13.134 0.959647 13.4148 0.611347 13.5849 0.446917C13.7075 0.328455 14.2863 0.2025 15.1162 0.2025C15.9463 0.2025 16.5249 0.328658 16.6477 0.44712C16.8178 0.611145 17.0984 0.959445 17.3 1.40454C16.8523 1.45233 15.9802 1.34176 15.1164 1.34176C14.2527 1.34176 13.3806 1.45233 12.9324 1.40454ZM16.98 2.45551C16.8812 2.45235 16.7876 2.41231 16.719 2.34384C16.6503 2.27537 16.6119 2.18384 16.6119 2.08858C16.6119 1.99333 16.6503 1.9018 16.719 1.83333C16.7876 1.76486 16.8812 1.72482 16.98 1.72165C17.0787 1.72484 17.1723 1.76491 17.2409 1.8334C17.3096 1.90188 17.348 1.99342 17.3479 2.08868C17.3479 2.18394 17.3095 2.27546 17.2408 2.34391C17.1721 2.41236 17.0787 2.45238 16.98 2.45551Z" fill="#DD2F30"/>
<path d="M27.9851 3.13022V0.649902H29.5796V1.0751H28.4528V1.66683H29.4804V2.09203H28.4528V2.70502H29.6009V3.13022H27.9851Z" fill="#FEFEFE"/>
<path d="M25.2571 3.13022V0.649902H26.1465L26.639 2.81132H26.7027V0.649902H27.1634V3.13022H26.274L25.7815 0.9688H25.7177V3.13022H25.2571Z" fill="#FEFEFE"/>
<path d="M23.4721 3.17963C23.1603 3.17963 22.9123 3.09459 22.728 2.92451C22.5438 2.75207 22.4517 2.5064 22.4517 2.1875V1.59222C22.4517 1.27333 22.5438 1.02884 22.728 0.858759C22.9123 0.686318 23.1603 0.600098 23.4721 0.600098C23.7839 0.600098 24.032 0.686318 24.2162 0.858759C24.4005 1.02884 24.4926 1.27333 24.4926 1.59222V2.1875C24.4926 2.5064 24.4005 2.75207 24.2162 2.92451C24.032 3.09459 23.7839 3.17963 23.4721 3.17963ZM23.4721 2.76151C23.6469 2.76151 23.7828 2.71073 23.8796 2.60915C23.9765 2.50758 24.0249 2.37175 24.0249 2.20167V1.57805C24.0249 1.40797 23.9765 1.27214 23.8796 1.17057C23.7828 1.069 23.6469 1.01821 23.4721 1.01821C23.2997 1.01821 23.1639 1.069 23.0647 1.17057C22.9678 1.27214 22.9194 1.40797 22.9194 1.57805V2.20167C22.9194 2.37175 22.9678 2.50758 23.0647 2.60915C23.1639 2.71073 23.2997 2.76151 23.4721 2.76151Z" fill="#FEFEFE"/>
<path d="M20.083 3.13022V2.53494L21.309 1.12471V1.06801H20.1184V0.649902H21.798V1.24518L20.572 2.65541V2.71211H21.8051V3.13022H20.083Z" fill="#FEFEFE"/>
<path d="M0 6.30668C4.91857 5.58224 17.8046 4.56803 30 6.30668C26.5472 5.88054 15.7134 5.28394 0 6.30668Z" fill="#FEFEFE"/>
</svg>
