<svg width="146" height="32" viewBox="0 0 146 32" fill="none" xmlns="http://www.w3.org/2000/svg">
<path d="M39.0835 15.8191V3.76318H44.3192C45.077 3.76318 45.7372 3.89522 46.2998 4.15931C46.8624 4.42339 47.2987 4.79655 47.6087 5.27878C47.9188 5.76102 48.0738 6.32937 48.0738 6.98383V7.19051C48.0738 7.91386 47.9015 8.49943 47.5571 8.94722C47.2126 9.39502 46.7878 9.72225 46.2826 9.92892V10.2389C46.7419 10.2619 47.0978 10.4226 47.3504 10.7212C47.603 11.0082 47.7293 11.3929 47.7293 11.8751V15.8191H45.4559V12.2023C45.4559 11.9268 45.3813 11.7029 45.232 11.5306C45.0942 11.3584 44.8588 11.2723 44.5259 11.2723H41.3569V15.8191H39.0835ZM41.3569 9.20557H44.0781C44.6177 9.20557 45.0368 9.06204 45.3353 8.775C45.6454 8.47647 45.8004 8.08609 45.8004 7.60385V7.43163C45.8004 6.94939 45.6511 6.56475 45.3526 6.2777C45.054 5.97917 44.6292 5.82991 44.0781 5.82991H41.3569V9.20557Z" fill="#FEFEFE"/>
<path d="M25.6191 15.8191L28.7881 3.76318H32.7493L35.9183 15.8191H33.576L32.9216 13.1668H28.6159L27.9614 15.8191H25.6191ZM29.1498 11.0656H32.3877L30.9237 5.19267H30.6137L29.1498 11.0656Z" fill="#FEFEFE"/>
<path d="M12.9812 15.8191L16.1502 3.76318H20.1114L23.2804 15.8191H20.9381L20.2836 13.1668H15.978L15.3235 15.8191H12.9812ZM16.5119 11.0656H19.7497L18.2858 5.19267H17.9758L16.5119 11.0656Z" fill="#FEFEFE"/>
<path d="M5.71838 16.0594C4.22575 16.0594 3.04312 15.646 2.1705 14.8194C1.29788 13.9812 0.861572 12.7871 0.861572 11.237V8.3436C0.861572 6.79356 1.29788 5.60519 2.1705 4.7785C3.04312 3.94033 4.22575 3.52124 5.71838 3.52124C7.19954 3.52124 8.34198 3.92884 9.1457 4.74405C9.96091 5.54778 10.3685 6.65578 10.3685 8.06804V8.17138H8.12956V7.99915C8.12956 7.28728 7.92863 6.7017 7.52677 6.24243C7.13639 5.78316 6.53359 5.55352 5.71838 5.55352C4.91465 5.55352 4.28315 5.80038 3.82388 6.2941C3.36461 6.78782 3.13497 7.4595 3.13497 8.30916V11.2715C3.13497 12.1096 3.36461 12.7813 3.82388 13.2865C4.28315 13.7802 4.91465 14.0271 5.71838 14.0271C6.53359 14.0271 7.13639 13.7975 7.52677 13.3382C7.92863 12.8674 8.12956 12.2819 8.12956 11.5815V11.2715H10.3685V11.5126C10.3685 12.9249 9.96091 14.0386 9.1457 14.8538C8.34198 15.6575 7.19954 16.0594 5.71838 16.0594Z" fill="#FEFEFE"/>
<path d="M86.3438 4.54038H84.0553C83.9289 4.54188 83.8077 4.58893 83.7154 4.67227C82.9846 3.54724 82.2282 2.64663 81.6413 2.08067C79.5998 0.112109 67.351 0.112109 65.3095 2.08067C64.7246 2.64564 63.9724 3.54035 63.2456 4.65751C63.158 4.58478 63.0468 4.54402 62.9312 4.54235H60.6417C60.361 4.54235 60.1313 4.76479 60.1313 5.03449V6.02861C60.1313 6.2983 60.3559 6.56012 60.6315 6.61229L62.0197 6.8682C60.8214 9.44504 60.115 12.6518 61.2256 15.8645V17.7711C61.2256 18.3154 61.3685 18.7553 61.5451 18.7553H64.1602C64.3368 18.7553 64.4797 18.3154 64.4797 17.7711V16.212C66.8253 16.4285 70.1447 16.6647 73.4744 16.6647C76.7734 16.6647 80.1296 16.4324 82.4711 16.2179V17.7711C82.4711 18.3154 82.614 18.7553 82.7896 18.7553H85.4047C85.5803 18.7553 85.7232 18.3154 85.7232 17.7711L85.7211 15.8635C86.8307 12.6548 86.1264 9.44996 84.9301 6.87312L86.3509 6.61229C86.4896 6.58188 86.6139 6.50801 86.7044 6.40222C86.7949 6.29643 86.8465 6.16469 86.8511 6.02762V5.0335C86.8514 4.96905 86.8384 4.90518 86.8131 4.84554C86.7877 4.78591 86.7504 4.73169 86.7033 4.68597C86.6562 4.64026 86.6002 4.60396 86.5385 4.57915C86.4768 4.55433 86.4106 4.54149 86.3438 4.54136V4.54038ZM64.4154 12.5396C63.9355 12.5242 63.4806 12.3296 63.1467 11.9968C62.8129 11.664 62.6262 11.2191 62.6262 10.7561C62.6262 10.2931 62.8129 9.84819 63.1467 9.5154C63.4806 9.1826 63.9355 8.98796 64.4154 8.97259C64.8953 8.98809 65.3501 9.18285 65.6839 9.51574C66.0176 9.84862 66.2041 10.2936 66.204 10.7566C66.2039 11.2196 66.0171 11.6644 65.6832 11.9971C65.3492 12.3298 64.8953 12.5244 64.4154 12.5396ZM62.8598 7.43121C63.8397 5.26875 65.2044 3.57579 66.0312 2.77655C66.6273 2.20075 69.4404 1.58853 73.4744 1.58853C77.5093 1.58853 80.3215 2.20173 80.9186 2.77754C81.7454 3.5748 83.1091 5.26776 84.089 7.43121C81.9128 7.6635 77.6737 7.12608 73.4754 7.12608C69.2771 7.12608 65.038 7.6635 62.8598 7.43121ZM82.5334 12.5396C82.0535 12.5242 81.5986 12.3296 81.2647 11.9968C80.9309 11.664 80.7443 11.2191 80.7443 10.7561C80.7443 10.2931 80.9309 9.84819 81.2647 9.5154C81.5986 9.1826 82.0535 8.98796 82.5334 8.97259C83.0133 8.98809 83.4681 9.18285 83.8019 9.51574C84.1356 9.84862 84.3221 10.2936 84.322 10.7566C84.3219 11.2196 84.1351 11.6644 83.8012 11.9971C83.4672 12.3298 83.0133 12.5244 82.5334 12.5396Z" fill="#DD2F30"/>
<path d="M136.026 15.8191V3.76318H143.776V5.82991H138.299V8.70611H143.294V10.7728H138.299V13.7524H143.879V15.8191H136.026Z" fill="#FEFEFE"/>
<path d="M122.765 15.8191V3.76318H127.088L129.482 14.269H129.792V3.76318H132.031V15.8191H127.708L125.314 5.31323H125.004V15.8191H122.765Z" fill="#FEFEFE"/>
<path d="M114.09 16.0589C112.574 16.0589 111.368 15.6456 110.473 14.8189C109.577 13.9807 109.129 12.7866 109.129 11.2365V8.34312C109.129 6.79307 109.577 5.6047 110.473 4.77801C111.368 3.93984 112.574 3.52075 114.09 3.52075C115.605 3.52075 116.811 3.93984 117.706 4.77801C118.602 5.6047 119.05 6.79307 119.05 8.34312V11.2365C119.05 12.7866 118.602 13.9807 117.706 14.8189C116.811 15.6456 115.605 16.0589 114.09 16.0589ZM114.09 14.0266C114.939 14.0266 115.599 13.7798 116.07 13.286C116.541 12.7923 116.776 12.1321 116.776 11.3054V8.27422C116.776 7.44753 116.541 6.78733 116.07 6.29361C115.599 5.79989 114.939 5.55303 114.09 5.55303C113.251 5.55303 112.591 5.79989 112.109 6.29361C111.638 6.78733 111.403 7.44753 111.403 8.27422V11.3054C111.403 12.1321 111.638 12.7923 112.109 13.286C112.591 13.7798 113.251 14.0266 114.09 14.0266Z" fill="#FEFEFE"/>
<path d="M97.6162 15.8191V12.9257L103.575 6.07103V5.79547H97.7884V3.76318H105.952V6.6566L99.9929 13.5112V13.7868H105.986V15.8191H97.6162Z" fill="#FEFEFE"/>
<path d="M0 31.2587C23.9074 27.7375 86.5415 22.8078 145.819 31.2587C129.036 29.1874 76.3769 26.2876 0 31.2587Z" fill="#FEFEFE"/>
</svg>
